<svg xmlns="http://www.w3.org/2000/svg" viewBox="0 0 64 64" role="img" aria-label="Más Alto">
  <rect width="64" height="64" rx="14" fill="#2B2A26"/>
  <path d="M46.07 12.38L47.89 12.69L48.65 13.45L49.11 14.51L54.28 36.41L54.58 39.0L52.76 39.6L50.63 39.6L50.02 39.3L49.26 38.39L49.26 33.98L48.5 33.06L47.74 33.06L45.31 34.43L40.74 38.24L37.86 40.21L35.57 41.28L33.9 41.43L33.29 41.12L32.68 40.36L32.53 37.02L32.23 35.95L31.77 35.35L30.4 35.04L28.43 35.8L26.14 37.32L9.26 51.62L13.52 46.14L23.26 34.59L34.51 21.96L42.11 14.21L44.39 12.84Z" fill="#F29100"/>
</svg>
