<svg class="qr-svg" viewBox="0 0 450 450" xmlns="http://www.w3.org/2000/svg" role="img" aria-label="Código QR de lanave.comunidadmasalto.org"><g fill="#201F1C"><rect x="120" y="40" width="10" height="10" rx="3.2"/><rect x="170" y="40" width="10" height="10" rx="3.2"/><rect x="210" y="40" width="10" height="10" rx="3.2"/><rect x="260" y="40" width="10" height="10" rx="3.2"/><rect x="270" y="40" width="10" height="10" rx="3.2"/><rect x="280" y="40" width="10" height="10" rx="3.2"/><rect x="290" y="40" width="10" height="10" rx="3.2"/><rect x="300" y="40" width="10" height="10" rx="3.2"/><rect x="320" y="40" width="10" height="10" rx="3.2"/><rect x="120" y="50" width="10" height="10" rx="3.2"/><rect x="140" y="50" width="10" height="10" rx="3.2"/><rect x="150" y="50" width="10" height="10" rx="3.2"/><rect x="160" y="50" width="10" height="10" rx="3.2"/><rect x="170" y="50" width="10" height="10" rx="3.2"/><rect x="200" y="50" width="10" height="10" rx="3.2"/><rect x="240" y="50" width="10" height="10" rx="3.2"/><rect x="250" y="50" width="10" height="10" rx="3.2"/><rect x="260" y="50" width="10" height="10" rx="3.2"/><rect x="280" y="50" width="10" height="10" rx="3.2"/><rect x="300" y="50" width="10" height="10" rx="3.2"/><rect x="310" y="50" width="10" height="10" rx="3.2"/><rect x="320" y="50" width="10" height="10" rx="3.2"/><rect x="120" y="60" width="10" height="10" rx="3.2"/><rect x="140" y="60" width="10" height="10" rx="3.2"/><rect x="150" y="60" width="10" height="10" rx="3.2"/><rect x="170" y="60" width="10" height="10" rx="3.2"/><rect x="180" y="60" width="10" height="10" rx="3.2"/><rect x="200" y="60" width="10" height="10" rx="3.2"/><rect x="210" y="60" width="10" height="10" rx="3.2"/><rect x="240" y="60" width="10" height="10" rx="3.2"/><rect x="260" y="60" width="10" height="10" rx="3.2"/><rect x="310" y="60" width="10" height="10" rx="3.2"/><rect x="320" y="60" width="10" height="10" rx="3.2"/><rect x="130" y="70" width="10" height="10" rx="3.2"/><rect x="150" y="70" width="10" height="10" rx="3.2"/><rect x="160" y="70" width="10" height="10" rx="3.2"/><rect x="180" y="70" width="10" height="10" rx="3.2"/><rect x="210" y="70" width="10" height="10" rx="3.2"/><rect x="220" y="70" width="10" height="10" rx="3.2"/><rect x="240" y="70" width="10" height="10" rx="3.2"/><rect x="260" y="70" width="10" height="10" rx="3.2"/><rect x="270" y="70" width="10" height="10" rx="3.2"/><rect x="290" y="70" width="10" height="10" rx="3.2"/><rect x="300" y="70" width="10" height="10" rx="3.2"/><rect x="130" y="80" width="10" height="10" rx="3.2"/><rect x="190" y="80" width="10" height="10" rx="3.2"/><rect x="210" y="80" width="10" height="10" rx="3.2"/><rect x="230" y="80" width="10" height="10" rx="3.2"/><rect x="240" y="80" width="10" height="10" rx="3.2"/><rect x="290" y="80" width="10" height="10" rx="3.2"/><rect x="300" y="80" width="10" height="10" rx="3.2"/><rect x="120" y="90" width="10" height="10" rx="3.2"/><rect x="130" y="90" width="10" height="10" rx="3.2"/><rect x="150" y="90" width="10" height="10" rx="3.2"/><rect x="160" y="90" width="10" height="10" rx="3.2"/><rect x="170" y="90" width="10" height="10" rx="3.2"/><rect x="190" y="90" width="10" height="10" rx="3.2"/><rect x="210" y="90" width="10" height="10" rx="3.2"/><rect x="260" y="90" width="10" height="10" rx="3.2"/><rect x="270" y="90" width="10" height="10" rx="3.2"/><rect x="290" y="90" width="10" height="10" rx="3.2"/><rect x="300" y="90" width="10" height="10" rx="3.2"/><rect x="310" y="90" width="10" height="10" rx="3.2"/><rect x="320" y="90" width="10" height="10" rx="3.2"/><rect x="120" y="100" width="10" height="10" rx="3.2"/><rect x="140" y="100" width="10" height="10" rx="3.2"/><rect x="160" y="100" width="10" height="10" rx="3.2"/><rect x="180" y="100" width="10" height="10" rx="3.2"/><rect x="200" y="100" width="10" height="10" rx="3.2"/><rect x="220" y="100" width="10" height="10" rx="3.2"/><rect x="240" y="100" width="10" height="10" rx="3.2"/><rect x="260" y="100" width="10" height="10" rx="3.2"/><rect x="280" y="100" width="10" height="10" rx="3.2"/><rect x="300" y="100" width="10" height="10" rx="3.2"/><rect x="320" y="100" width="10" height="10" rx="3.2"/><rect x="120" y="110" width="10" height="10" rx="3.2"/><rect x="140" y="110" width="10" height="10" rx="3.2"/><rect x="160" y="110" width="10" height="10" rx="3.2"/><rect x="180" y="110" width="10" height="10" rx="3.2"/><rect x="190" y="110" width="10" height="10" rx="3.2"/><rect x="220" y="110" width="10" height="10" rx="3.2"/><rect x="230" y="110" width="10" height="10" rx="3.2"/><rect x="250" y="110" width="10" height="10" rx="3.2"/><rect x="280" y="110" width="10" height="10" rx="3.2"/><rect x="290" y="110" width="10" height="10" rx="3.2"/><rect x="320" y="110" width="10" height="10" rx="3.2"/><rect x="60" y="120" width="10" height="10" rx="3.2"/><rect x="70" y="120" width="10" height="10" rx="3.2"/><rect x="80" y="120" width="10" height="10" rx="3.2"/><rect x="100" y="120" width="10" height="10" rx="3.2"/><rect x="120" y="120" width="10" height="10" rx="3.2"/><rect x="130" y="120" width="10" height="10" rx="3.2"/><rect x="160" y="120" width="10" height="10" rx="3.2"/><rect x="170" y="120" width="10" height="10" rx="3.2"/><rect x="190" y="120" width="10" height="10" rx="3.2"/><rect x="200" y="120" width="10" height="10" rx="3.2"/><rect x="210" y="120" width="10" height="10" rx="3.2"/><rect x="230" y="120" width="10" height="10" rx="3.2"/><rect x="240" y="120" width="10" height="10" rx="3.2"/><rect x="270" y="120" width="10" height="10" rx="3.2"/><rect x="280" y="120" width="10" height="10" rx="3.2"/><rect x="300" y="120" width="10" height="10" rx="3.2"/><rect x="320" y="120" width="10" height="10" rx="3.2"/><rect x="330" y="120" width="10" height="10" rx="3.2"/><rect x="340" y="120" width="10" height="10" rx="3.2"/><rect x="350" y="120" width="10" height="10" rx="3.2"/><rect x="380" y="120" width="10" height="10" rx="3.2"/><rect x="390" y="120" width="10" height="10" rx="3.2"/><rect x="400" y="120" width="10" height="10" rx="3.2"/><rect x="50" y="130" width="10" height="10" rx="3.2"/><rect x="70" y="130" width="10" height="10" rx="3.2"/><rect x="80" y="130" width="10" height="10" rx="3.2"/><rect x="90" y="130" width="10" height="10" rx="3.2"/><rect x="120" y="130" width="10" height="10" rx="3.2"/><rect x="140" y="130" width="10" height="10" rx="3.2"/><rect x="150" y="130" width="10" height="10" rx="3.2"/><rect x="160" y="130" width="10" height="10" rx="3.2"/><rect x="210" y="130" width="10" height="10" rx="3.2"/><rect x="230" y="130" width="10" height="10" rx="3.2"/><rect x="240" y="130" width="10" height="10" rx="3.2"/><rect x="270" y="130" width="10" height="10" rx="3.2"/><rect x="290" y="130" width="10" height="10" rx="3.2"/><rect x="310" y="130" width="10" height="10" rx="3.2"/><rect x="340" y="130" width="10" height="10" rx="3.2"/><rect x="350" y="130" width="10" height="10" rx="3.2"/><rect x="360" y="130" width="10" height="10" rx="3.2"/><rect x="370" y="130" width="10" height="10" rx="3.2"/><rect x="50" y="140" width="10" height="10" rx="3.2"/><rect x="100" y="140" width="10" height="10" rx="3.2"/><rect x="120" y="140" width="10" height="10" rx="3.2"/><rect x="130" y="140" width="10" height="10" rx="3.2"/><rect x="140" y="140" width="10" height="10" rx="3.2"/><rect x="160" y="140" width="10" height="10" rx="3.2"/><rect x="170" y="140" width="10" height="10" rx="3.2"/><rect x="200" y="140" width="10" height="10" rx="3.2"/><rect x="210" y="140" width="10" height="10" rx="3.2"/><rect x="270" y="140" width="10" height="10" rx="3.2"/><rect x="280" y="140" width="10" height="10" rx="3.2"/><rect x="290" y="140" width="10" height="10" rx="3.2"/><rect x="300" y="140" width="10" height="10" rx="3.2"/><rect x="310" y="140" width="10" height="10" rx="3.2"/><rect x="320" y="140" width="10" height="10" rx="3.2"/><rect x="340" y="140" width="10" height="10" rx="3.2"/><rect x="360" y="140" width="10" height="10" rx="3.2"/><rect x="370" y="140" width="10" height="10" rx="3.2"/><rect x="380" y="140" width="10" height="10" rx="3.2"/><rect x="390" y="140" width="10" height="10" rx="3.2"/><rect x="400" y="140" width="10" height="10" rx="3.2"/><rect x="40" y="150" width="10" height="10" rx="3.2"/><rect x="60" y="150" width="10" height="10" rx="3.2"/><rect x="70" y="150" width="10" height="10" rx="3.2"/><rect x="90" y="150" width="10" height="10" rx="3.2"/><rect x="110" y="150" width="10" height="10" rx="3.2"/><rect x="160" y="150" width="10" height="10" rx="3.2"/><rect x="190" y="150" width="10" height="10" rx="3.2"/><rect x="200" y="150" width="10" height="10" rx="3.2"/><rect x="220" y="150" width="10" height="10" rx="3.2"/><rect x="230" y="150" width="10" height="10" rx="3.2"/><rect x="250" y="150" width="10" height="10" rx="3.2"/><rect x="300" y="150" width="10" height="10" rx="3.2"/><rect x="310" y="150" width="10" height="10" rx="3.2"/><rect x="340" y="150" width="10" height="10" rx="3.2"/><rect x="350" y="150" width="10" height="10" rx="3.2"/><rect x="360" y="150" width="10" height="10" rx="3.2"/><rect x="400" y="150" width="10" height="10" rx="3.2"/><rect x="40" y="160" width="10" height="10" rx="3.2"/><rect x="50" y="160" width="10" height="10" rx="3.2"/><rect x="60" y="160" width="10" height="10" rx="3.2"/><rect x="70" y="160" width="10" height="10" rx="3.2"/><rect x="100" y="160" width="10" height="10" rx="3.2"/><rect x="120" y="160" width="10" height="10" rx="3.2"/><rect x="130" y="160" width="10" height="10" rx="3.2"/><rect x="160" y="160" width="10" height="10" rx="3.2"/><rect x="180" y="160" width="10" height="10" rx="3.2"/><rect x="190" y="160" width="10" height="10" rx="3.2"/><rect x="200" y="160" width="10" height="10" rx="3.2"/><rect x="210" y="160" width="10" height="10" rx="3.2"/><rect x="230" y="160" width="10" height="10" rx="3.2"/><rect x="270" y="160" width="10" height="10" rx="3.2"/><rect x="280" y="160" width="10" height="10" rx="3.2"/><rect x="290" y="160" width="10" height="10" rx="3.2"/><rect x="300" y="160" width="10" height="10" rx="3.2"/><rect x="310" y="160" width="10" height="10" rx="3.2"/><rect x="330" y="160" width="10" height="10" rx="3.2"/><rect x="340" y="160" width="10" height="10" rx="3.2"/><rect x="360" y="160" width="10" height="10" rx="3.2"/><rect x="370" y="160" width="10" height="10" rx="3.2"/><rect x="380" y="160" width="10" height="10" rx="3.2"/><rect x="390" y="160" width="10" height="10" rx="3.2"/><rect x="400" y="160" width="10" height="10" rx="3.2"/><rect x="40" y="170" width="10" height="10" rx="3.2"/><rect x="60" y="170" width="10" height="10" rx="3.2"/><rect x="70" y="170" width="10" height="10" rx="3.2"/><rect x="80" y="170" width="10" height="10" rx="3.2"/><rect x="130" y="170" width="10" height="10" rx="3.2"/><rect x="140" y="170" width="10" height="10" rx="3.2"/><rect x="160" y="170" width="10" height="10" rx="3.2"/><rect x="200" y="170" width="10" height="10" rx="3.2"/><rect x="210" y="170" width="10" height="10" rx="3.2"/><rect x="230" y="170" width="10" height="10" rx="3.2"/><rect x="240" y="170" width="10" height="10" rx="3.2"/><rect x="260" y="170" width="10" height="10" rx="3.2"/><rect x="320" y="170" width="10" height="10" rx="3.2"/><rect x="330" y="170" width="10" height="10" rx="3.2"/><rect x="350" y="170" width="10" height="10" rx="3.2"/><rect x="370" y="170" width="10" height="10" rx="3.2"/><rect x="380" y="170" width="10" height="10" rx="3.2"/><rect x="50" y="180" width="10" height="10" rx="3.2"/><rect x="60" y="180" width="10" height="10" rx="3.2"/><rect x="70" y="180" width="10" height="10" rx="3.2"/><rect x="80" y="180" width="10" height="10" rx="3.2"/><rect x="90" y="180" width="10" height="10" rx="3.2"/><rect x="100" y="180" width="10" height="10" rx="3.2"/><rect x="120" y="180" width="10" height="10" rx="3.2"/><rect x="150" y="180" width="10" height="10" rx="3.2"/><rect x="160" y="180" width="10" height="10" rx="3.2"/><rect x="170" y="180" width="10" height="10" rx="3.2"/><rect x="210" y="180" width="10" height="10" rx="3.2"/><rect x="230" y="180" width="10" height="10" rx="3.2"/><rect x="240" y="180" width="10" height="10" rx="3.2"/><rect x="270" y="180" width="10" height="10" rx="3.2"/><rect x="300" y="180" width="10" height="10" rx="3.2"/><rect x="310" y="180" width="10" height="10" rx="3.2"/><rect x="320" y="180" width="10" height="10" rx="3.2"/><rect x="330" y="180" width="10" height="10" rx="3.2"/><rect x="350" y="180" width="10" height="10" rx="3.2"/><rect x="370" y="180" width="10" height="10" rx="3.2"/><rect x="390" y="180" width="10" height="10" rx="3.2"/><rect x="400" y="180" width="10" height="10" rx="3.2"/><rect x="40" y="190" width="10" height="10" rx="3.2"/><rect x="50" y="190" width="10" height="10" rx="3.2"/><rect x="60" y="190" width="10" height="10" rx="3.2"/><rect x="70" y="190" width="10" height="10" rx="3.2"/><rect x="80" y="190" width="10" height="10" rx="3.2"/><rect x="110" y="190" width="10" height="10" rx="3.2"/><rect x="130" y="190" width="10" height="10" rx="3.2"/><rect x="140" y="190" width="10" height="10" rx="3.2"/><rect x="150" y="190" width="10" height="10" rx="3.2"/><rect x="170" y="190" width="10" height="10" rx="3.2"/><rect x="190" y="190" width="10" height="10" rx="3.2"/><rect x="200" y="190" width="10" height="10" rx="3.2"/><rect x="220" y="190" width="10" height="10" rx="3.2"/><rect x="230" y="190" width="10" height="10" rx="3.2"/><rect x="240" y="190" width="10" height="10" rx="3.2"/><rect x="250" y="190" width="10" height="10" rx="3.2"/><rect x="260" y="190" width="10" height="10" rx="3.2"/><rect x="270" y="190" width="10" height="10" rx="3.2"/><rect x="280" y="190" width="10" height="10" rx="3.2"/><rect x="300" y="190" width="10" height="10" rx="3.2"/><rect x="310" y="190" width="10" height="10" rx="3.2"/><rect x="350" y="190" width="10" height="10" rx="3.2"/><rect x="360" y="190" width="10" height="10" rx="3.2"/><rect x="40" y="200" width="10" height="10" rx="3.2"/><rect x="60" y="200" width="10" height="10" rx="3.2"/><rect x="70" y="200" width="10" height="10" rx="3.2"/><rect x="100" y="200" width="10" height="10" rx="3.2"/><rect x="130" y="200" width="10" height="10" rx="3.2"/><rect x="140" y="200" width="10" height="10" rx="3.2"/><rect x="150" y="200" width="10" height="10" rx="3.2"/><rect x="160" y="200" width="10" height="10" rx="3.2"/><rect x="180" y="200" width="10" height="10" rx="3.2"/><rect x="200" y="200" width="10" height="10" rx="3.2"/><rect x="220" y="200" width="10" height="10" rx="3.2"/><rect x="230" y="200" width="10" height="10" rx="3.2"/><rect x="250" y="200" width="10" height="10" rx="3.2"/><rect x="280" y="200" width="10" height="10" rx="3.2"/><rect x="290" y="200" width="10" height="10" rx="3.2"/><rect x="300" y="200" width="10" height="10" rx="3.2"/><rect x="310" y="200" width="10" height="10" rx="3.2"/><rect x="330" y="200" width="10" height="10" rx="3.2"/><rect x="340" y="200" width="10" height="10" rx="3.2"/><rect x="360" y="200" width="10" height="10" rx="3.2"/><rect x="380" y="200" width="10" height="10" rx="3.2"/><rect x="390" y="200" width="10" height="10" rx="3.2"/><rect x="40" y="210" width="10" height="10" rx="3.2"/><rect x="60" y="210" width="10" height="10" rx="3.2"/><rect x="70" y="210" width="10" height="10" rx="3.2"/><rect x="80" y="210" width="10" height="10" rx="3.2"/><rect x="90" y="210" width="10" height="10" rx="3.2"/><rect x="110" y="210" width="10" height="10" rx="3.2"/><rect x="130" y="210" width="10" height="10" rx="3.2"/><rect x="150" y="210" width="10" height="10" rx="3.2"/><rect x="160" y="210" width="10" height="10" rx="3.2"/><rect x="190" y="210" width="10" height="10" rx="3.2"/><rect x="230" y="210" width="10" height="10" rx="3.2"/><rect x="250" y="210" width="10" height="10" rx="3.2"/><rect x="270" y="210" width="10" height="10" rx="3.2"/><rect x="280" y="210" width="10" height="10" rx="3.2"/><rect x="320" y="210" width="10" height="10" rx="3.2"/><rect x="370" y="210" width="10" height="10" rx="3.2"/><rect x="40" y="220" width="10" height="10" rx="3.2"/><rect x="50" y="220" width="10" height="10" rx="3.2"/><rect x="60" y="220" width="10" height="10" rx="3.2"/><rect x="70" y="220" width="10" height="10" rx="3.2"/><rect x="90" y="220" width="10" height="10" rx="3.2"/><rect x="100" y="220" width="10" height="10" rx="3.2"/><rect x="120" y="220" width="10" height="10" rx="3.2"/><rect x="150" y="220" width="10" height="10" rx="3.2"/><rect x="180" y="220" width="10" height="10" rx="3.2"/><rect x="190" y="220" width="10" height="10" rx="3.2"/><rect x="220" y="220" width="10" height="10" rx="3.2"/><rect x="250" y="220" width="10" height="10" rx="3.2"/><rect x="260" y="220" width="10" height="10" rx="3.2"/><rect x="270" y="220" width="10" height="10" rx="3.2"/><rect x="300" y="220" width="10" height="10" rx="3.2"/><rect x="310" y="220" width="10" height="10" rx="3.2"/><rect x="320" y="220" width="10" height="10" rx="3.2"/><rect x="340" y="220" width="10" height="10" rx="3.2"/><rect x="350" y="220" width="10" height="10" rx="3.2"/><rect x="390" y="220" width="10" height="10" rx="3.2"/><rect x="400" y="220" width="10" height="10" rx="3.2"/><rect x="40" y="230" width="10" height="10" rx="3.2"/><rect x="50" y="230" width="10" height="10" rx="3.2"/><rect x="60" y="230" width="10" height="10" rx="3.2"/><rect x="70" y="230" width="10" height="10" rx="3.2"/><rect x="80" y="230" width="10" height="10" rx="3.2"/><rect x="90" y="230" width="10" height="10" rx="3.2"/><rect x="120" y="230" width="10" height="10" rx="3.2"/><rect x="130" y="230" width="10" height="10" rx="3.2"/><rect x="140" y="230" width="10" height="10" rx="3.2"/><rect x="160" y="230" width="10" height="10" rx="3.2"/><rect x="200" y="230" width="10" height="10" rx="3.2"/><rect x="210" y="230" width="10" height="10" rx="3.2"/><rect x="220" y="230" width="10" height="10" rx="3.2"/><rect x="250" y="230" width="10" height="10" rx="3.2"/><rect x="270" y="230" width="10" height="10" rx="3.2"/><rect x="280" y="230" width="10" height="10" rx="3.2"/><rect x="320" y="230" width="10" height="10" rx="3.2"/><rect x="330" y="230" width="10" height="10" rx="3.2"/><rect x="340" y="230" width="10" height="10" rx="3.2"/><rect x="350" y="230" width="10" height="10" rx="3.2"/><rect x="400" y="230" width="10" height="10" rx="3.2"/><rect x="60" y="240" width="10" height="10" rx="3.2"/><rect x="90" y="240" width="10" height="10" rx="3.2"/><rect x="100" y="240" width="10" height="10" rx="3.2"/><rect x="120" y="240" width="10" height="10" rx="3.2"/><rect x="130" y="240" width="10" height="10" rx="3.2"/><rect x="150" y="240" width="10" height="10" rx="3.2"/><rect x="160" y="240" width="10" height="10" rx="3.2"/><rect x="170" y="240" width="10" height="10" rx="3.2"/><rect x="180" y="240" width="10" height="10" rx="3.2"/><rect x="190" y="240" width="10" height="10" rx="3.2"/><rect x="210" y="240" width="10" height="10" rx="3.2"/><rect x="220" y="240" width="10" height="10" rx="3.2"/><rect x="230" y="240" width="10" height="10" rx="3.2"/><rect x="260" y="240" width="10" height="10" rx="3.2"/><rect x="270" y="240" width="10" height="10" rx="3.2"/><rect x="280" y="240" width="10" height="10" rx="3.2"/><rect x="290" y="240" width="10" height="10" rx="3.2"/><rect x="300" y="240" width="10" height="10" rx="3.2"/><rect x="330" y="240" width="10" height="10" rx="3.2"/><rect x="340" y="240" width="10" height="10" rx="3.2"/><rect x="350" y="240" width="10" height="10" rx="3.2"/><rect x="360" y="240" width="10" height="10" rx="3.2"/><rect x="380" y="240" width="10" height="10" rx="3.2"/><rect x="390" y="240" width="10" height="10" rx="3.2"/><rect x="400" y="240" width="10" height="10" rx="3.2"/><rect x="50" y="250" width="10" height="10" rx="3.2"/><rect x="90" y="250" width="10" height="10" rx="3.2"/><rect x="110" y="250" width="10" height="10" rx="3.2"/><rect x="120" y="250" width="10" height="10" rx="3.2"/><rect x="130" y="250" width="10" height="10" rx="3.2"/><rect x="150" y="250" width="10" height="10" rx="3.2"/><rect x="160" y="250" width="10" height="10" rx="3.2"/><rect x="190" y="250" width="10" height="10" rx="3.2"/><rect x="220" y="250" width="10" height="10" rx="3.2"/><rect x="260" y="250" width="10" height="10" rx="3.2"/><rect x="280" y="250" width="10" height="10" rx="3.2"/><rect x="330" y="250" width="10" height="10" rx="3.2"/><rect x="350" y="250" width="10" height="10" rx="3.2"/><rect x="370" y="250" width="10" height="10" rx="3.2"/><rect x="390" y="250" width="10" height="10" rx="3.2"/><rect x="40" y="260" width="10" height="10" rx="3.2"/><rect x="60" y="260" width="10" height="10" rx="3.2"/><rect x="90" y="260" width="10" height="10" rx="3.2"/><rect x="100" y="260" width="10" height="10" rx="3.2"/><rect x="110" y="260" width="10" height="10" rx="3.2"/><rect x="130" y="260" width="10" height="10" rx="3.2"/><rect x="150" y="260" width="10" height="10" rx="3.2"/><rect x="170" y="260" width="10" height="10" rx="3.2"/><rect x="180" y="260" width="10" height="10" rx="3.2"/><rect x="200" y="260" width="10" height="10" rx="3.2"/><rect x="210" y="260" width="10" height="10" rx="3.2"/><rect x="230" y="260" width="10" height="10" rx="3.2"/><rect x="250" y="260" width="10" height="10" rx="3.2"/><rect x="310" y="260" width="10" height="10" rx="3.2"/><rect x="340" y="260" width="10" height="10" rx="3.2"/><rect x="390" y="260" width="10" height="10" rx="3.2"/><rect x="400" y="260" width="10" height="10" rx="3.2"/><rect x="50" y="270" width="10" height="10" rx="3.2"/><rect x="60" y="270" width="10" height="10" rx="3.2"/><rect x="70" y="270" width="10" height="10" rx="3.2"/><rect x="90" y="270" width="10" height="10" rx="3.2"/><rect x="120" y="270" width="10" height="10" rx="3.2"/><rect x="190" y="270" width="10" height="10" rx="3.2"/><rect x="210" y="270" width="10" height="10" rx="3.2"/><rect x="220" y="270" width="10" height="10" rx="3.2"/><rect x="230" y="270" width="10" height="10" rx="3.2"/><rect x="260" y="270" width="10" height="10" rx="3.2"/><rect x="300" y="270" width="10" height="10" rx="3.2"/><rect x="330" y="270" width="10" height="10" rx="3.2"/><rect x="340" y="270" width="10" height="10" rx="3.2"/><rect x="350" y="270" width="10" height="10" rx="3.2"/><rect x="390" y="270" width="10" height="10" rx="3.2"/><rect x="40" y="280" width="10" height="10" rx="3.2"/><rect x="50" y="280" width="10" height="10" rx="3.2"/><rect x="70" y="280" width="10" height="10" rx="3.2"/><rect x="90" y="280" width="10" height="10" rx="3.2"/><rect x="100" y="280" width="10" height="10" rx="3.2"/><rect x="110" y="280" width="10" height="10" rx="3.2"/><rect x="120" y="280" width="10" height="10" rx="3.2"/><rect x="130" y="280" width="10" height="10" rx="3.2"/><rect x="160" y="280" width="10" height="10" rx="3.2"/><rect x="170" y="280" width="10" height="10" rx="3.2"/><rect x="180" y="280" width="10" height="10" rx="3.2"/><rect x="200" y="280" width="10" height="10" rx="3.2"/><rect x="250" y="280" width="10" height="10" rx="3.2"/><rect x="270" y="280" width="10" height="10" rx="3.2"/><rect x="340" y="280" width="10" height="10" rx="3.2"/><rect x="370" y="280" width="10" height="10" rx="3.2"/><rect x="380" y="280" width="10" height="10" rx="3.2"/><rect x="390" y="280" width="10" height="10" rx="3.2"/><rect x="40" y="290" width="10" height="10" rx="3.2"/><rect x="120" y="290" width="10" height="10" rx="3.2"/><rect x="150" y="290" width="10" height="10" rx="3.2"/><rect x="160" y="290" width="10" height="10" rx="3.2"/><rect x="170" y="290" width="10" height="10" rx="3.2"/><rect x="180" y="290" width="10" height="10" rx="3.2"/><rect x="190" y="290" width="10" height="10" rx="3.2"/><rect x="220" y="290" width="10" height="10" rx="3.2"/><rect x="260" y="290" width="10" height="10" rx="3.2"/><rect x="280" y="290" width="10" height="10" rx="3.2"/><rect x="290" y="290" width="10" height="10" rx="3.2"/><rect x="300" y="290" width="10" height="10" rx="3.2"/><rect x="310" y="290" width="10" height="10" rx="3.2"/><rect x="320" y="290" width="10" height="10" rx="3.2"/><rect x="330" y="290" width="10" height="10" rx="3.2"/><rect x="340" y="290" width="10" height="10" rx="3.2"/><rect x="40" y="300" width="10" height="10" rx="3.2"/><rect x="60" y="300" width="10" height="10" rx="3.2"/><rect x="90" y="300" width="10" height="10" rx="3.2"/><rect x="100" y="300" width="10" height="10" rx="3.2"/><rect x="110" y="300" width="10" height="10" rx="3.2"/><rect x="130" y="300" width="10" height="10" rx="3.2"/><rect x="140" y="300" width="10" height="10" rx="3.2"/><rect x="150" y="300" width="10" height="10" rx="3.2"/><rect x="170" y="300" width="10" height="10" rx="3.2"/><rect x="210" y="300" width="10" height="10" rx="3.2"/><rect x="220" y="300" width="10" height="10" rx="3.2"/><rect x="230" y="300" width="10" height="10" rx="3.2"/><rect x="240" y="300" width="10" height="10" rx="3.2"/><rect x="250" y="300" width="10" height="10" rx="3.2"/><rect x="300" y="300" width="10" height="10" rx="3.2"/><rect x="340" y="300" width="10" height="10" rx="3.2"/><rect x="350" y="300" width="10" height="10" rx="3.2"/><rect x="360" y="300" width="10" height="10" rx="3.2"/><rect x="380" y="300" width="10" height="10" rx="3.2"/><rect x="390" y="300" width="10" height="10" rx="3.2"/><rect x="400" y="300" width="10" height="10" rx="3.2"/><rect x="40" y="310" width="10" height="10" rx="3.2"/><rect x="60" y="310" width="10" height="10" rx="3.2"/><rect x="70" y="310" width="10" height="10" rx="3.2"/><rect x="80" y="310" width="10" height="10" rx="3.2"/><rect x="90" y="310" width="10" height="10" rx="3.2"/><rect x="150" y="310" width="10" height="10" rx="3.2"/><rect x="160" y="310" width="10" height="10" rx="3.2"/><rect x="170" y="310" width="10" height="10" rx="3.2"/><rect x="200" y="310" width="10" height="10" rx="3.2"/><rect x="220" y="310" width="10" height="10" rx="3.2"/><rect x="280" y="310" width="10" height="10" rx="3.2"/><rect x="320" y="310" width="10" height="10" rx="3.2"/><rect x="330" y="310" width="10" height="10" rx="3.2"/><rect x="350" y="310" width="10" height="10" rx="3.2"/><rect x="360" y="310" width="10" height="10" rx="3.2"/><rect x="370" y="310" width="10" height="10" rx="3.2"/><rect x="390" y="310" width="10" height="10" rx="3.2"/><rect x="400" y="310" width="10" height="10" rx="3.2"/><rect x="40" y="320" width="10" height="10" rx="3.2"/><rect x="90" y="320" width="10" height="10" rx="3.2"/><rect x="100" y="320" width="10" height="10" rx="3.2"/><rect x="120" y="320" width="10" height="10" rx="3.2"/><rect x="130" y="320" width="10" height="10" rx="3.2"/><rect x="150" y="320" width="10" height="10" rx="3.2"/><rect x="250" y="320" width="10" height="10" rx="3.2"/><rect x="280" y="320" width="10" height="10" rx="3.2"/><rect x="290" y="320" width="10" height="10" rx="3.2"/><rect x="300" y="320" width="10" height="10" rx="3.2"/><rect x="320" y="320" width="10" height="10" rx="3.2"/><rect x="330" y="320" width="10" height="10" rx="3.2"/><rect x="340" y="320" width="10" height="10" rx="3.2"/><rect x="350" y="320" width="10" height="10" rx="3.2"/><rect x="360" y="320" width="10" height="10" rx="3.2"/><rect x="370" y="320" width="10" height="10" rx="3.2"/><rect x="380" y="320" width="10" height="10" rx="3.2"/><rect x="120" y="330" width="10" height="10" rx="3.2"/><rect x="140" y="330" width="10" height="10" rx="3.2"/><rect x="160" y="330" width="10" height="10" rx="3.2"/><rect x="170" y="330" width="10" height="10" rx="3.2"/><rect x="180" y="330" width="10" height="10" rx="3.2"/><rect x="200" y="330" width="10" height="10" rx="3.2"/><rect x="230" y="330" width="10" height="10" rx="3.2"/><rect x="240" y="330" width="10" height="10" rx="3.2"/><rect x="260" y="330" width="10" height="10" rx="3.2"/><rect x="270" y="330" width="10" height="10" rx="3.2"/><rect x="290" y="330" width="10" height="10" rx="3.2"/><rect x="310" y="330" width="10" height="10" rx="3.2"/><rect x="320" y="330" width="10" height="10" rx="3.2"/><rect x="360" y="330" width="10" height="10" rx="3.2"/><rect x="130" y="340" width="10" height="10" rx="3.2"/><rect x="180" y="340" width="10" height="10" rx="3.2"/><rect x="240" y="340" width="10" height="10" rx="3.2"/><rect x="250" y="340" width="10" height="10" rx="3.2"/><rect x="260" y="340" width="10" height="10" rx="3.2"/><rect x="280" y="340" width="10" height="10" rx="3.2"/><rect x="290" y="340" width="10" height="10" rx="3.2"/><rect x="300" y="340" width="10" height="10" rx="3.2"/><rect x="320" y="340" width="10" height="10" rx="3.2"/><rect x="340" y="340" width="10" height="10" rx="3.2"/><rect x="360" y="340" width="10" height="10" rx="3.2"/><rect x="370" y="340" width="10" height="10" rx="3.2"/><rect x="390" y="340" width="10" height="10" rx="3.2"/><rect x="400" y="340" width="10" height="10" rx="3.2"/><rect x="130" y="350" width="10" height="10" rx="3.2"/><rect x="140" y="350" width="10" height="10" rx="3.2"/><rect x="170" y="350" width="10" height="10" rx="3.2"/><rect x="180" y="350" width="10" height="10" rx="3.2"/><rect x="220" y="350" width="10" height="10" rx="3.2"/><rect x="230" y="350" width="10" height="10" rx="3.2"/><rect x="270" y="350" width="10" height="10" rx="3.2"/><rect x="320" y="350" width="10" height="10" rx="3.2"/><rect x="360" y="350" width="10" height="10" rx="3.2"/><rect x="390" y="350" width="10" height="10" rx="3.2"/><rect x="400" y="350" width="10" height="10" rx="3.2"/><rect x="120" y="360" width="10" height="10" rx="3.2"/><rect x="130" y="360" width="10" height="10" rx="3.2"/><rect x="140" y="360" width="10" height="10" rx="3.2"/><rect x="150" y="360" width="10" height="10" rx="3.2"/><rect x="160" y="360" width="10" height="10" rx="3.2"/><rect x="170" y="360" width="10" height="10" rx="3.2"/><rect x="180" y="360" width="10" height="10" rx="3.2"/><rect x="190" y="360" width="10" height="10" rx="3.2"/><rect x="210" y="360" width="10" height="10" rx="3.2"/><rect x="220" y="360" width="10" height="10" rx="3.2"/><rect x="230" y="360" width="10" height="10" rx="3.2"/><rect x="270" y="360" width="10" height="10" rx="3.2"/><rect x="280" y="360" width="10" height="10" rx="3.2"/><rect x="290" y="360" width="10" height="10" rx="3.2"/><rect x="300" y="360" width="10" height="10" rx="3.2"/><rect x="310" y="360" width="10" height="10" rx="3.2"/><rect x="320" y="360" width="10" height="10" rx="3.2"/><rect x="330" y="360" width="10" height="10" rx="3.2"/><rect x="340" y="360" width="10" height="10" rx="3.2"/><rect x="350" y="360" width="10" height="10" rx="3.2"/><rect x="360" y="360" width="10" height="10" rx="3.2"/><rect x="380" y="360" width="10" height="10" rx="3.2"/><rect x="400" y="360" width="10" height="10" rx="3.2"/><rect x="120" y="370" width="10" height="10" rx="3.2"/><rect x="140" y="370" width="10" height="10" rx="3.2"/><rect x="150" y="370" width="10" height="10" rx="3.2"/><rect x="160" y="370" width="10" height="10" rx="3.2"/><rect x="170" y="370" width="10" height="10" rx="3.2"/><rect x="180" y="370" width="10" height="10" rx="3.2"/><rect x="220" y="370" width="10" height="10" rx="3.2"/><rect x="230" y="370" width="10" height="10" rx="3.2"/><rect x="240" y="370" width="10" height="10" rx="3.2"/><rect x="250" y="370" width="10" height="10" rx="3.2"/><rect x="290" y="370" width="10" height="10" rx="3.2"/><rect x="320" y="370" width="10" height="10" rx="3.2"/><rect x="340" y="370" width="10" height="10" rx="3.2"/><rect x="360" y="370" width="10" height="10" rx="3.2"/><rect x="120" y="380" width="10" height="10" rx="3.2"/><rect x="150" y="380" width="10" height="10" rx="3.2"/><rect x="160" y="380" width="10" height="10" rx="3.2"/><rect x="170" y="380" width="10" height="10" rx="3.2"/><rect x="190" y="380" width="10" height="10" rx="3.2"/><rect x="200" y="380" width="10" height="10" rx="3.2"/><rect x="250" y="380" width="10" height="10" rx="3.2"/><rect x="270" y="380" width="10" height="10" rx="3.2"/><rect x="280" y="380" width="10" height="10" rx="3.2"/><rect x="290" y="380" width="10" height="10" rx="3.2"/><rect x="300" y="380" width="10" height="10" rx="3.2"/><rect x="310" y="380" width="10" height="10" rx="3.2"/><rect x="330" y="380" width="10" height="10" rx="3.2"/><rect x="350" y="380" width="10" height="10" rx="3.2"/><rect x="370" y="380" width="10" height="10" rx="3.2"/><rect x="380" y="380" width="10" height="10" rx="3.2"/><rect x="400" y="380" width="10" height="10" rx="3.2"/><rect x="130" y="390" width="10" height="10" rx="3.2"/><rect x="140" y="390" width="10" height="10" rx="3.2"/><rect x="150" y="390" width="10" height="10" rx="3.2"/><rect x="160" y="390" width="10" height="10" rx="3.2"/><rect x="170" y="390" width="10" height="10" rx="3.2"/><rect x="180" y="390" width="10" height="10" rx="3.2"/><rect x="190" y="390" width="10" height="10" rx="3.2"/><rect x="200" y="390" width="10" height="10" rx="3.2"/><rect x="210" y="390" width="10" height="10" rx="3.2"/><rect x="220" y="390" width="10" height="10" rx="3.2"/><rect x="230" y="390" width="10" height="10" rx="3.2"/><rect x="250" y="390" width="10" height="10" rx="3.2"/><rect x="260" y="390" width="10" height="10" rx="3.2"/><rect x="270" y="390" width="10" height="10" rx="3.2"/><rect x="300" y="390" width="10" height="10" rx="3.2"/><rect x="310" y="390" width="10" height="10" rx="3.2"/><rect x="320" y="390" width="10" height="10" rx="3.2"/><rect x="340" y="390" width="10" height="10" rx="3.2"/><rect x="400" y="390" width="10" height="10" rx="3.2"/><rect x="130" y="400" width="10" height="10" rx="3.2"/><rect x="150" y="400" width="10" height="10" rx="3.2"/><rect x="160" y="400" width="10" height="10" rx="3.2"/><rect x="170" y="400" width="10" height="10" rx="3.2"/><rect x="200" y="400" width="10" height="10" rx="3.2"/><rect x="220" y="400" width="10" height="10" rx="3.2"/><rect x="230" y="400" width="10" height="10" rx="3.2"/><rect x="250" y="400" width="10" height="10" rx="3.2"/><rect x="270" y="400" width="10" height="10" rx="3.2"/><rect x="280" y="400" width="10" height="10" rx="3.2"/><rect x="290" y="400" width="10" height="10" rx="3.2"/><rect x="330" y="400" width="10" height="10" rx="3.2"/><rect x="350" y="400" width="10" height="10" rx="3.2"/><rect x="370" y="400" width="10" height="10" rx="3.2"/><rect x="380" y="400" width="10" height="10" rx="3.2"/><rect x="390" y="400" width="10" height="10" rx="3.2"/><rect x="400" y="400" width="10" height="10" rx="3.2"/><rect x="45" y="45" width="60" height="60" rx="17" fill="none" stroke="#201F1C" stroke-width="10"/><rect x="60" y="60" width="30" height="30" rx="9"/><rect x="345" y="45" width="60" height="60" rx="17" fill="none" stroke="#201F1C" stroke-width="10"/><rect x="360" y="60" width="30" height="30" rx="9"/><rect x="45" y="345" width="60" height="60" rx="17" fill="none" stroke="#201F1C" stroke-width="10"/><rect x="60" y="360" width="30" height="30" rx="9"/></g></svg>